<?xml version="1.0" encoding="UTF-8"?>
<svg id="Layer_2" data-name="Layer 2" xmlns="http://www.w3.org/2000/svg" viewBox="0 0 64.49 51.85">
  <defs>
    <style>
      .cls-1, .cls-2 {
        stroke: #231f20;
        stroke-miterlimit: 10;
      }

      .cls-1, .cls-3 {
        fill: none;
      }

      .cls-4 {
        fill: #fff;
      }

      .cls-2 {
        fill: #231f20;
        stroke-width: .25px;
      }
    </style>
  </defs>
  <g id="Layer_1-2" data-name="Layer 1">
    <rect class="cls-1" x=".5" y=".5" width="63.49" height="50.85" rx="12" ry="12"/>
    <line class="cls-1" x1="4.21" y1="3.64" x2="60.02" y2="48.44"/>
    <line class="cls-1" x1="3.79" y1="47.82" x2="58.33" y2="1.88"/>
    <path class="cls-3" d="m26.54,34.25l-1.51-1.15.36-.4c.23-.26.44-.54.62-.86l.29-.48,1.11.84"/>
    <path class="cls-4" d="m38.45,30.17l-1.69,1.79-11.7-.33c-.92-.95-1.12-.6-1.96-1.28-1.13-.9-6.33,1.02-6.33-.53v-12.86l1.88-.15c.16,1.55.52-.01.57-.68.18-2.7.3-7.33,2.48-7.33h19.83c1.56,0,.21,5.75,1.11,6.89.67.84,1.18.78,1.18.78l2.64,13.35c0,2.72-5.28.35-8,.35Z"/>
    <g>
      <path class="cls-2" d="m30.72,34.33c-1.02,0-2.07-.28-3.19-.86l-.22-.11c-.63-.32-1.42-.71-1.42-1.59,0-2.24,3.16-2.83,4.83-2.83s4.83.59,4.83,2.83c0,.88-.78,1.28-1.4,1.6l-.2.1c-1.09.57-2.17.87-3.22.87Zm0-4.65c-1.58,0-4.08.57-4.08,2.08,0,.39.38.61,1,.92l.23.12c2.06,1.07,3.79,1.02,5.72,0l.21-.11c.6-.31,1-.54,1-.93,0-1.52-2.5-2.08-4.08-2.08Z"/>
      <path class="cls-2" d="m31.01,34.45c-2.11,0-3.59-.51-4.53-1.56-.77-.85-1.55-1.37-2.12-1.74-.62-.41-1.16-.76-.95-1.35h0c1.26-3.46,4.57-3.9,7.32-3.9,3.23,0,7.07,1.07,7.28,4.08.06.79-2.61,2.55-2.64,2.57l-.41.27c-1.21.8-2.47,1.63-3.94,1.63Zm-6.6-4.48c.12.09.32.23.49.34.58.38,1.46.96,2.31,1.91.74.83,1.98,1.23,3.79,1.23,1.17,0,2.25-.71,3.39-1.46l.42-.27c.82-.53,1.92-1.45,2.18-1.78-.29-2.39-4.06-3.03-6.27-3.03-2.51,0-5.22.37-6.31,3.07Z"/>
      <path class="cls-2" d="m31.05,34.45c-1.59,0-3.64-.22-5.33-1.92-1.01-1.02-2.07-1.78-2.83-2.34-1.11-.8-1.77-1.28-1.42-1.95h0c2.07-3.95,5.82-4.48,9.22-4.48,5.01,0,8.12,1.47,9.49,4.49.24.52-.24.92-1.27,1.78-.63.52-1.41,1.17-2.14,1.93-1.63,1.7-3.44,2.49-5.71,2.49Zm-8.63-5.89c.17.19.63.52,1.05.82.8.58,1.89,1.36,2.96,2.44,1.13,1.14,2.52,1.62,4.62,1.62,1.97,0,3.56-.69,4.98-2.18.77-.8,1.57-1.47,2.22-2.01.35-.29.73-.61.91-.79-1.25-2.5-4.03-3.71-8.49-3.71-3.21,0-6.42.46-8.25,3.8Z"/>
      <path class="cls-2" d="m21.63,29.16l-3.45-2.85c-.63-.51-1.05-1.37-1.15-2.34-.1-.98.14-1.9.65-2.53l.57-.98,5.89,6.07-2.52,2.63Zm-3.23-7.47l-.1.17c-.42.52-.6,1.26-.52,2.03.08.77.41,1.46.88,1.84l2.91,2.41,1.53-1.61-4.7-4.84Z"/>
      <path class="cls-2" d="m23.58,27.04l-5.12-5.73c-.6-.48-.97-1.24-1-2.1-.03-.81.25-1.64.77-2.28l1.13-.89,5.91,9.62-1.68,1.38Zm-4.43-9.89l-.41.32c-.35.44-.56,1.09-.54,1.72.03.64.3,1.21.77,1.59l4.69,5.23.62-.51-5.13-8.34Z"/>
      <path class="cls-2" d="m24.62,26.06l-4.44-7.53c-1.83-2.24-1.09-3.52-.09-4.74l.1-.09.32-.19c.35-.2.77-.24,1.15-.12.38.13.69.41.86.78l4.69,10.75-2.59,1.14Zm-4-11.75c-.88,1.09-1.32,1.96.17,3.79l4.13,7.01,1.3-.57-4.39-10.06c-.08-.18-.22-.31-.4-.37-.18-.06-.38-.04-.54.06l-.26.15Z"/>
      <path class="cls-2" d="m28.08,24.6l-2.68-10.3c-.51-1.5-.49-2.97.05-4.02.35-.66,1.08-1.07,1.86-1.01,1.06.07,1.84.82,1.94,1.78l1.35,13.06-2.52.48Zm-.84-14.58c-.53,0-.93.23-1.13.61-.45.87-.45,2.13,0,3.46l2.51,9.65,1.16-.22-1.28-12.38c-.06-.6-.55-1.07-1.15-1.11-.04,0-.08,0-.12,0Z"/>
      <path class="cls-2" d="m34.02,24.71l-2.55-.58.43-10.37c-.05-1.58.39-2.99,1.22-3.83.52-.54,1.34-.7,2.08-.42,1,.37,1.53,1.32,1.34,2.27l-2.52,12.93Zm-1.77-1.17l1.18.27,2.37-12.17c.12-.6-.21-1.18-.78-1.39-.55-.21-1.05-.11-1.36.21-.68.7-1.05,1.9-1.01,3.31l-.41,9.78Z"/>
      <path class="cls-2" d="m31.84,24.22l-2.18-.04-1.15-12.05c-.08-1.34-.11-1.84.49-2.57.6-.73,1.65-1.03,2.61-.74l.32.1c.58.18.96.73.92,1.33l-1.01,13.96Zm-1.5-.77h.8s.95-13.24.95-13.24c.02-.26-.14-.49-.39-.56l-.32-.1c-.67-.2-1.4,0-1.81.5-.4.49-.4.72-.32,2.04l1.08,11.37Z"/>
      <path class="cls-2" d="m26.5,25.19l-3.67-8.84c-.91-1.53-1.12-3.21-.54-4.45.21-.44.62-.78,1.1-.89.86-.21,1.72.29,1.96,1.15l3.46,12.25-2.31.79Zm-2.72-13.48c-.07,0-.14,0-.21.03-.27.06-.49.25-.6.48-.48,1.02-.28,2.43.53,3.8l3.43,8.24.97-.33-3.26-11.57c-.11-.39-.46-.65-.85-.65Z"/>
      <path class="cls-2" d="m39.82,29.17l-2.11-2.49,5.88-7.03.68.96c1.16,1.19,1.12,3.66-.12,4.86l-4.34,3.69Zm-1.13-2.49l1.21,1.43,3.75-3.19c.91-.89.95-2.9.05-3.83l-.15-.22-4.85,5.8Z"/>
      <path class="cls-2" d="m38.27,27.22l-1.59-1.3,5.44-10.57,1.13.73c1.31,1.34,1.36,3.33.17,4.49l-5.15,6.64Zm-.64-1.49l.52.43,4.72-6.07c.92-.89.86-2.44-.08-3.41l-.37-.23-4.79,9.29Z"/>
      <path class="cls-2" d="m37.32,26.33l-2.48-1.29,3.96-11.29c.13-.38.42-.69.79-.85.37-.16.79-.15,1.16.02l.45.24c1.1,1.13,1.94,2.35.28,4.79l-4.16,8.39Zm-1.56-1.66l1.22.64,3.84-7.75c1.36-2,.84-2.83-.13-3.84l-.27-.13c-.17-.08-.37-.08-.55,0-.18.08-.31.22-.37.4l-3.75,10.68Z"/>
      <path class="cls-2" d="m35.53,25.36l-2.12-.89,2.39-12.47c.17-.87.98-1.45,1.86-1.31.5.08.93.37,1.18.79.69,1.19.62,2.88-.18,4.53l-3.13,9.35Zm-1.27-1.35l.82.34,2.89-8.63c.71-1.47.79-2.91.22-3.88-.13-.23-.37-.39-.64-.43-.48-.07-.92.24-1.01.71l-2.28,11.87Z"/>
    </g>
  </g>
</svg>